C:\Users\u0088756\Documents\documenten\software\SoftwareProjects\DC_TrackingSimulation\Data\FitMuscleFunctions\dummy_motion_LeftSubtalar.mot
nRows=11
nColumns=17

name C:\Users\u0088756\Documents\documenten\software\SoftwareProjects\DC_TrackingSimulation\Data\FitMuscleFunctions\dummy_motion_LeftSubtalar.mot
datacolumns 17
datarows 11
range 25.0100000000 25.1100000000
endheader
time	first_body_list	first_body_rotation	first_body_tilt	first_body_tx	first_body_ty	first_body_tz	subtalar_angle_l	ankle_angle_l	knee_angle_l	hip_flexion_l	hip_adduction_l	hip_rotation_l	lumbar_extension	lumbar_bending	lumbar_rotation	mtp_angle_l
       25.0100000000	        0.0000000000	        0.0000000000	        0.0000000000	        0.0000000000	        0.0000000000	        0.0000000000	      -12.0576885161	      -48.8415930192	      -92.6743887162	      105.6493245178	      -14.6378334829	       37.1435183737	      -51.1199459507	        9.6669694221	       48.4545334182	        0.0000000000	
       25.0200000000	        0.0000000000	        0.0000000000	        0.0000000000	        0.0000000000	        0.0000000000	        0.0000000000	        9.9086631933	      -30.8627636577	       -8.3265593951	       24.4778172361	      -39.5027571770	      -14.2302163444	      -38.8762268343	      -36.6673738978	      -28.1170881022	        0.0000000000	
       25.0300000000	        0.0000000000	        0.0000000000	        0.0000000000	        0.0000000000	        0.0000000000	        0.0000000000	      -12.8378439277	       19.6830775214	      -45.2788516328	       46.5661356396	      -17.5595938589	       19.7008168259	      -38.1124271661	       23.6561590113	        0.9132929388	        0.0000000000	
       25.0400000000	        0.0000000000	        0.0000000000	        0.0000000000	        0.0000000000	        0.0000000000	        0.0000000000	       26.6860880043	       40.9543103587	      -89.2208374935	        5.2047583782	       16.6222786721	      -27.0962060236	      -23.8535416407	      -49.2243436926	       39.5991214165	        0.0000000000	
       25.0500000000	        0.0000000000	        0.0000000000	        0.0000000000	        0.0000000000	        0.0000000000	        0.0000000000	       16.4357397119	       38.3717881768	      -44.0289485787	      -15.1446447705	      -23.4910377518	      -34.6173569195	      -56.1625126364	      -45.3293406293	      -12.9838226801	        0.0000000000	
       25.0600000000	        0.0000000000	        0.0000000000	        0.0000000000	        0.0000000000	        0.0000000000	        0.0000000000	       10.9145435171	      -32.9048687634	      -82.9796180193	      110.6112474358	      -22.4679664292	       39.9027240305	        2.2434339331	      -21.2854363343	       -1.7430204205	        0.0000000000	
       25.0700000000	        0.0000000000	        0.0000000000	        0.0000000000	        0.0000000000	        0.0000000000	        0.0000000000	       20.1904306418	      -11.0301010513	     -118.7565074919	      -53.0925260561	        6.4103260231	       25.6625812631	      -13.1121365098	      -26.7265763256	       44.2425897801	        0.0000000000	
       25.0800000000	        0.0000000000	        0.0000000000	        0.0000000000	        0.0000000000	        0.0000000000	        0.0000000000	       28.2061427039	      -13.6133309768	      -51.6066687057	      -28.0148188430	       -6.4139617803	      -10.9333760670	        9.7525288923	      -25.3379665250	       -9.2229223946	        0.0000000000	
       25.0900000000	        0.0000000000	        0.0000000000	        0.0000000000	        0.0000000000	        0.0000000000	        0.0000000000	      -29.0767421375	        3.5842095364	      -56.2221241479	      -56.1183539389	       13.2221093107	       -5.9585208556	      -36.9687226158	      -19.7867081398	      -36.2923837075	        0.0000000000	
       25.1000000000	        0.0000000000	        0.0000000000	        0.0000000000	        0.0000000000	        0.0000000000	        0.0000000000	      -23.8892729949	      -37.2383493327	      -56.7193064100	       17.7554868453	      -19.0630119566	       26.2068793501	      -49.5461050976	       29.8906906999	       46.6301397030	        0.0000000000	
       25.1100000000	        0.0000000000	        0.0000000000	        0.0000000000	        0.0000000000	        0.0000000000	        0.0000000000	      -29.8862891149	        0.6300872440	      -32.3922041832	       31.6197571906	       23.7600216053	       -3.3579640367	       20.2152447191	      -16.1642468859	       15.4642239684	        0.0000000000	
